%TF.GenerationSoftware,KiCad,Pcbnew,8.0.4*%
%TF.CreationDate,2025-02-16T16:05:02+01:00*%
%TF.ProjectId,bj-magistrska,626a2d6d-6167-4697-9374-72736b612e6b,rev?*%
%TF.SameCoordinates,Original*%
%TF.FileFunction,Soldermask,Bot*%
%TF.FilePolarity,Negative*%
%FSLAX46Y46*%
G04 Gerber Fmt 4.6, Leading zero omitted, Abs format (unit mm)*
G04 Created by KiCad (PCBNEW 8.0.4) date 2025-02-16 16:05:02*
%MOMM*%
%LPD*%
G01*
G04 APERTURE LIST*
G04 Aperture macros list*
%AMRoundRect*
0 Rectangle with rounded corners*
0 $1 Rounding radius*
0 $2 $3 $4 $5 $6 $7 $8 $9 X,Y pos of 4 corners*
0 Add a 4 corners polygon primitive as box body*
4,1,4,$2,$3,$4,$5,$6,$7,$8,$9,$2,$3,0*
0 Add four circle primitives for the rounded corners*
1,1,$1+$1,$2,$3*
1,1,$1+$1,$4,$5*
1,1,$1+$1,$6,$7*
1,1,$1+$1,$8,$9*
0 Add four rect primitives between the rounded corners*
20,1,$1+$1,$2,$3,$4,$5,0*
20,1,$1+$1,$4,$5,$6,$7,0*
20,1,$1+$1,$6,$7,$8,$9,0*
20,1,$1+$1,$8,$9,$2,$3,0*%
G04 Aperture macros list end*
%ADD10C,2.000000*%
%ADD11R,2.000000X2.000000*%
%ADD12R,2.600000X2.600000*%
%ADD13C,2.600000*%
%ADD14C,0.600000*%
%ADD15RoundRect,0.250000X-1.800000X-1.655000X1.800000X-1.655000X1.800000X1.655000X-1.800000X1.655000X0*%
%ADD16R,3.200000X2.000000*%
%ADD17C,4.000000*%
%ADD18R,1.500000X1.500000*%
%ADD19C,1.500000*%
%ADD20RoundRect,0.250000X-0.625000X0.350000X-0.625000X-0.350000X0.625000X-0.350000X0.625000X0.350000X0*%
%ADD21O,1.750000X1.200000*%
%ADD22C,1.530000*%
%ADD23R,1.530000X1.530000*%
G04 APERTURE END LIST*
D10*
%TO.C,U7*%
X114590000Y-106290000D03*
X114590000Y-108830000D03*
X114590000Y-116450000D03*
X112050000Y-116450000D03*
X109510000Y-116450000D03*
X106970000Y-116450000D03*
X104430000Y-116450000D03*
X101890000Y-116450000D03*
X99350000Y-116450000D03*
X96810000Y-116450000D03*
X96810000Y-103750000D03*
X99350000Y-103750000D03*
X101890000Y-103750000D03*
X104430000Y-103750000D03*
X106970000Y-103750000D03*
X109510000Y-103750000D03*
X112050000Y-103750000D03*
D11*
X114590000Y-103750000D03*
%TD*%
D12*
%TO.C,J3*%
X87295000Y-120440000D03*
D13*
X87295000Y-125520000D03*
%TD*%
D14*
%TO.C,Q1*%
X98275000Y-131092500D03*
X98275000Y-132045000D03*
X98275000Y-132997500D03*
X98275000Y-133950000D03*
X99227500Y-131092500D03*
X99227500Y-132045000D03*
X99227500Y-132997500D03*
X99227500Y-133950000D03*
D15*
X99732500Y-132520000D03*
D14*
X100180000Y-131092500D03*
X100180000Y-132045000D03*
X100180000Y-132997500D03*
X100180000Y-133950000D03*
X101132500Y-131092500D03*
X101132500Y-132045000D03*
X101132500Y-132997500D03*
X101132500Y-133950000D03*
%TD*%
D12*
%TO.C,J1*%
X87300000Y-132450000D03*
D13*
X87300000Y-137530000D03*
%TD*%
D11*
%TO.C,SW3*%
X133900000Y-108900000D03*
D10*
X133900000Y-113900000D03*
X133900000Y-111400000D03*
D16*
X141400000Y-105800000D03*
X141400000Y-117000000D03*
D10*
X148400000Y-113900000D03*
X148400000Y-108900000D03*
%TD*%
D17*
%TO.C,U6*%
X86067500Y-56400000D03*
X86067500Y-90500000D03*
X147267500Y-56400000D03*
X147267500Y-90500000D03*
D18*
X84567500Y-63290000D03*
D19*
X84567500Y-65830000D03*
X84567500Y-68370000D03*
X84567500Y-70910000D03*
X84567500Y-73450000D03*
X84567500Y-75990000D03*
X84567500Y-78530000D03*
X84567500Y-81070000D03*
X84567500Y-83610000D03*
X148087500Y-68370000D03*
X148087500Y-70910000D03*
X148087500Y-73450000D03*
X148087500Y-75990000D03*
X148087500Y-78530000D03*
%TD*%
D20*
%TO.C,J4*%
X89225000Y-106450000D03*
D21*
X89225000Y-108450000D03*
X89225000Y-110450000D03*
X89225000Y-112450000D03*
%TD*%
D22*
%TO.C,U4*%
X85215000Y-145580000D03*
X85215000Y-143040000D03*
X87755000Y-145580000D03*
X87755000Y-143040000D03*
X90295000Y-145580000D03*
X90295000Y-143040000D03*
X92835000Y-145580000D03*
X92835000Y-143040000D03*
X95375000Y-145580000D03*
X95375000Y-143040000D03*
X97915000Y-145580000D03*
X97915000Y-143040000D03*
X100455000Y-145580000D03*
X100455000Y-143040000D03*
X102995000Y-145580000D03*
X102995000Y-143040000D03*
X105535000Y-145580000D03*
X105535000Y-143040000D03*
X108075000Y-145580000D03*
X108075000Y-143040000D03*
X110615000Y-145580000D03*
X110615000Y-143040000D03*
X113155000Y-145580000D03*
X113155000Y-143040000D03*
X115695000Y-145580000D03*
X115695000Y-143040000D03*
X118235000Y-145580000D03*
X118235000Y-143040000D03*
X120775000Y-145580000D03*
X120775000Y-143040000D03*
X123315000Y-145580000D03*
X123315000Y-143040000D03*
X125855000Y-145580000D03*
D23*
X125855000Y-143040000D03*
D22*
X85215000Y-99860000D03*
X85215000Y-97320000D03*
X87755000Y-99860000D03*
X87755000Y-97320000D03*
X90295000Y-99860000D03*
X90295000Y-97320000D03*
X92835000Y-99860000D03*
X92835000Y-97320000D03*
X95375000Y-99860000D03*
X95375000Y-97320000D03*
X97915000Y-99860000D03*
X97915000Y-97320000D03*
X100455000Y-99860000D03*
X100455000Y-97320000D03*
X102995000Y-99860000D03*
X102995000Y-97320000D03*
X105535000Y-99860000D03*
X105535000Y-97320000D03*
X108075000Y-99860000D03*
X108075000Y-97320000D03*
X110615000Y-99860000D03*
X110615000Y-97320000D03*
X113155000Y-99860000D03*
X113155000Y-97320000D03*
X115695000Y-99860000D03*
X115695000Y-97320000D03*
X118235000Y-99860000D03*
X118235000Y-97320000D03*
X120775000Y-99860000D03*
D23*
X120775000Y-97320000D03*
D22*
X125855000Y-99860000D03*
X125855000Y-97320000D03*
X128395000Y-99860000D03*
X128395000Y-97320000D03*
X130935000Y-99860000D03*
X130935000Y-97320000D03*
X133475000Y-99860000D03*
X133475000Y-97320000D03*
X136015000Y-99860000D03*
X136015000Y-97320000D03*
X138555000Y-99860000D03*
X138555000Y-97320000D03*
X141095000Y-99860000D03*
X141095000Y-97320000D03*
X143635000Y-99860000D03*
D23*
X143635000Y-97320000D03*
D22*
X129919000Y-145580000D03*
X129919000Y-143040000D03*
X132459000Y-145580000D03*
X132459000Y-143040000D03*
X134999000Y-145580000D03*
X134999000Y-143040000D03*
X137539000Y-145580000D03*
X137539000Y-143040000D03*
X140079000Y-145580000D03*
X140079000Y-143040000D03*
X142619000Y-145580000D03*
X142619000Y-143040000D03*
X145159000Y-145580000D03*
X145159000Y-143040000D03*
X147699000Y-145580000D03*
X147699000Y-143040000D03*
X150239000Y-145580000D03*
X150239000Y-143040000D03*
X152779000Y-145580000D03*
D23*
X152779000Y-143040000D03*
%TD*%
M02*
