M48
; DRILL file {KiCad 8.0.4} date 2025-02-16T16:05:19+0100
; FORMAT={-:-/ absolute / metric / decimal}
; #@! TF.CreationDate,2025-02-16T16:05:19+01:00
; #@! TF.GenerationSoftware,Kicad,Pcbnew,8.0.4
; #@! TF.FileFunction,Plated,1,4,PTH
FMAT,2
METRIC
; #@! TA.AperFunction,Plated,PTH,ViaDrill
T1C0.300
; #@! TA.AperFunction,Plated,PTH,ComponentDrill
T2C0.300
; #@! TA.AperFunction,Plated,PTH,ComponentDrill
T3C0.750
; #@! TA.AperFunction,Plated,PTH,ComponentDrill
T4C1.000
; #@! TA.AperFunction,Plated,PTH,ComponentDrill
T5C1.020
; #@! TA.AperFunction,Plated,PTH,ComponentDrill
T6C1.200
; #@! TA.AperFunction,Plated,PTH,ComponentDrill
T7C1.300
; #@! TA.AperFunction,Plated,PTH,ComponentDrill
T8C1.500
; #@! TA.AperFunction,Plated,PTH,ComponentDrill
T9C2.700
%
G90
G05
T1
X84.35Y-113.7
X85.35Y-103.45
X87.1Y-113.7
X87.35Y-103.45
X87.6Y-61.45
X87.6Y-63.45
X87.6Y-65.2
X87.6Y-67.2
X89.1Y-103.45
X90.1Y-119.775
X91.1Y-103.45
X91.4Y-122.275
X91.7Y-117.575
X95.655Y-136.995
X95.655Y-137.745
X96.405Y-136.495
X96.405Y-137.245
X96.405Y-137.995
X97.155Y-137.245
X97.155Y-137.995
X99.1Y-140.95
X101.1Y-140.95
X102.85Y-140.95
X104.0Y-133.4
X104.85Y-140.95
X105.18Y-131.498
X105.35Y-135.2
X107.35Y-135.7
X107.35Y-136.95
X107.68Y-133.7
X107.68Y-134.7
X108.1Y-135.7
X108.35Y-128.7
X108.35Y-134.2
X109.85Y-106.95
X110.3Y-125.5
X110.7Y-124.7
X111.1Y-108.2
X111.1Y-125.5
X111.6Y-133.45
X112.35Y-109.45
X112.425Y-125.975
X112.675Y-141.45
X113.1Y-133.45
X113.6Y-110.7
X114.025Y-125.975
X114.025Y-131.075
X114.525Y-135.175
X115.046Y-136.034
X115.325Y-135.175
X115.825Y-133.475
X116.85Y-121.2
X117.17Y-117.13
X117.425Y-127.975
X117.425Y-130.075
X117.525Y-133.475
X117.6Y-120.45
X117.85Y-135.2
X117.85Y-137.2
X117.85Y-138.95
X117.85Y-140.95
X118.35Y-121.2
X118.85Y-102.45
X118.85Y-104.45
X118.85Y-106.2
X118.85Y-108.2
X120.35Y-116.2
X120.6Y-104.7
X120.6Y-112.95
X120.6Y-113.95
X121.1Y-117.2
X121.1Y-118.2
X121.1Y-119.2
X121.35Y-105.7
X121.587Y-128.95
X121.587Y-132.25
X122.1Y-104.7
X122.1Y-117.2
X122.1Y-118.2
X122.1Y-119.2
X122.412Y-131.037
X123.1Y-117.2
X123.1Y-118.2
X123.1Y-119.2
X123.312Y-131.037
X123.387Y-135.95
X123.612Y-127.438
X124.1Y-117.2
X124.1Y-118.2
X124.1Y-119.2
X124.312Y-131.037
X125.1Y-105.2
X125.1Y-107.2
X125.1Y-108.95
X125.1Y-110.95
X126.35Y-140.7
X126.726Y-132.942
X127.1Y-126.2
X128.35Y-140.7
X129.35Y-102.7
X129.5Y-106.5
X130.1Y-118.95
X130.1Y-140.7
X131.0Y-129.175
X131.35Y-102.7
X131.35Y-120.2
X132.1Y-140.7
X132.6Y-121.45
X133.1Y-102.7
X133.1Y-136.7
X133.85Y-122.7
X135.1Y-102.7
X136.1Y-108.7
X136.7Y-140.1
X136.725Y-140.9
X138.85Y-110.45
X140.85Y-110.45
X141.1Y-128.95
X141.1Y-130.95
X141.1Y-132.7
X141.1Y-134.7
X142.1Y-127.2
X142.6Y-110.45
X143.1Y-135.7
X143.6Y-127.2
X144.6Y-110.45
X145.6Y-127.2
X148.85Y-96.7
X148.85Y-98.7
X148.85Y-100.45
X149.2Y-128.65
T2
X96.655Y-138.645
X96.655Y-139.845
X98.275Y-131.093
X98.275Y-132.045
X98.275Y-132.998
X98.275Y-133.95
X99.227Y-131.093
X99.227Y-132.045
X99.227Y-132.998
X99.227Y-133.95
X100.18Y-131.093
X100.18Y-132.045
X100.18Y-132.998
X100.18Y-133.95
X101.132Y-131.093
X101.132Y-132.045
X101.132Y-132.998
X101.132Y-133.95
T3
X89.225Y-106.45
X89.225Y-108.45
X89.225Y-110.45
X89.225Y-112.45
T4
X84.567Y-63.29
X84.567Y-65.83
X84.567Y-68.37
X84.567Y-70.91
X84.567Y-73.45
X84.567Y-75.99
X84.567Y-78.53
X84.567Y-81.07
X84.567Y-83.61
X133.9Y-108.9
X133.9Y-111.4
X133.9Y-113.9
X148.088Y-68.37
X148.088Y-70.91
X148.088Y-73.45
X148.088Y-75.99
X148.088Y-78.53
X148.4Y-108.9
X148.4Y-113.9
T5
X85.215Y-97.32
X85.215Y-99.86
X85.215Y-143.04
X85.215Y-145.58
X87.755Y-97.32
X87.755Y-99.86
X87.755Y-143.04
X87.755Y-145.58
X90.295Y-97.32
X90.295Y-99.86
X90.295Y-143.04
X90.295Y-145.58
X92.835Y-97.32
X92.835Y-99.86
X92.835Y-143.04
X92.835Y-145.58
X95.375Y-97.32
X95.375Y-99.86
X95.375Y-143.04
X95.375Y-145.58
X97.915Y-97.32
X97.915Y-99.86
X97.915Y-143.04
X97.915Y-145.58
X100.455Y-97.32
X100.455Y-99.86
X100.455Y-143.04
X100.455Y-145.58
X102.995Y-97.32
X102.995Y-99.86
X102.995Y-143.04
X102.995Y-145.58
X105.535Y-97.32
X105.535Y-99.86
X105.535Y-143.04
X105.535Y-145.58
X108.075Y-97.32
X108.075Y-99.86
X108.075Y-143.04
X108.075Y-145.58
X110.615Y-97.32
X110.615Y-99.86
X110.615Y-143.04
X110.615Y-145.58
X113.155Y-97.32
X113.155Y-99.86
X113.155Y-143.04
X113.155Y-145.58
X115.695Y-97.32
X115.695Y-99.86
X115.695Y-143.04
X115.695Y-145.58
X118.235Y-97.32
X118.235Y-99.86
X118.235Y-143.04
X118.235Y-145.58
X120.775Y-97.32
X120.775Y-99.86
X120.775Y-143.04
X120.775Y-145.58
X123.315Y-143.04
X123.315Y-145.58
X125.855Y-97.32
X125.855Y-99.86
X125.855Y-143.04
X125.855Y-145.58
X128.395Y-97.32
X128.395Y-99.86
X129.919Y-143.04
X129.919Y-145.58
X130.935Y-97.32
X130.935Y-99.86
X132.459Y-143.04
X132.459Y-145.58
X133.475Y-97.32
X133.475Y-99.86
X134.999Y-143.04
X134.999Y-145.58
X136.015Y-97.32
X136.015Y-99.86
X137.539Y-143.04
X137.539Y-145.58
X138.555Y-97.32
X138.555Y-99.86
X140.079Y-143.04
X140.079Y-145.58
X141.095Y-97.32
X141.095Y-99.86
X142.619Y-143.04
X142.619Y-145.58
X143.635Y-97.32
X143.635Y-99.86
X145.159Y-143.04
X145.159Y-145.58
X147.699Y-143.04
X147.699Y-145.58
X150.239Y-143.04
X150.239Y-145.58
X152.779Y-143.04
X152.779Y-145.58
T6
X96.81Y-103.75
X96.81Y-116.45
X99.35Y-103.75
X99.35Y-116.45
X101.89Y-103.75
X101.89Y-116.45
X104.43Y-103.75
X104.43Y-116.45
X106.97Y-103.75
X106.97Y-116.45
X109.51Y-103.75
X109.51Y-116.45
X112.05Y-103.75
X112.05Y-116.45
X114.59Y-103.75
X114.59Y-106.29
X114.59Y-108.83
X114.59Y-116.45
T7
X87.295Y-120.44
X87.295Y-125.52
X87.3Y-132.45
X87.3Y-137.53
T9
X86.067Y-56.4
X86.067Y-90.5
X147.267Y-56.4
X147.267Y-90.5
T8
G00X140.75Y-105.8
M15
G01X142.05Y-105.8
M16
G05
G00X140.75Y-117.0
M15
G01X142.05Y-117.0
M16
G05
M30
